<svg xmlns="http://www.w3.org/2000/svg" version="1.1" xmlns:xlink="http://www.w3.org/1999/xlink" width="512" height="512"><svg width="512" height="512" viewBox="0 0 512 512" fill="none" xmlns="http://www.w3.org/2000/svg">
<path d="M354.09 42.0211C356.227 43.1164 358.381 44.176 360.535 45.2384C388.704 59.3612 414.837 80.9438 434 106C434.494 106.645 434.988 107.29 435.497 107.954C443.724 118.786 450.801 129.897 457 142C457.387 142.743 457.773 143.486 458.171 144.252C470.596 168.357 478.29 195.022 481 222C481.111 223 481.222 224.001 481.336 225.031C486.967 284.079 468.363 342.638 431.5 388.75C430.012 390.51 428.511 392.26 427 394C426.541 394.542 426.083 395.084 425.61 395.642C419.082 403.317 413.061 410.377 402.731 412.457C396.439 412.931 391.093 410.564 386 407C380.311 401.05 379.576 395.223 379.664 387.289C380.442 379.676 385.442 375.445 390.703 370.371C403.915 356.732 414.076 340.148 422 323C422.534 321.861 423.068 320.721 423.617 319.547C443.501 275.247 443.6 225.187 426.91 179.922C418.148 156.945 404.908 136.817 388 119C387.554 118.527 387.109 118.054 386.65 117.567C355.575 84.7971 310.285 64.5061 265.176 62.8995C215.405 61.5957 168.316 77.6155 131.528 111.602C130.276 112.789 130.276 112.789 129 114C128.527 114.446 128.054 114.892 127.567 115.351C110.78 131.269 98.7941 150.132 89.0002 171C88.4665 172.104 87.9328 173.207 87.383 174.344C80.0585 190.283 76.3318 207.687 74.0002 225C73.8687 225.942 73.7372 226.885 73.6017 227.856C69.4686 263.881 77.7602 301.332 95.0002 333C95.3263 333.611 95.6524 334.222 95.9885 334.851C104.26 350.282 115.281 363.578 127.063 376.438C131.314 381.319 132.548 386.159 132.375 392.563C131.415 398.805 128.478 404.303 123.375 408.063C117.011 411.716 109.846 412.301 102.715 410.387C93.0045 406.005 86.4157 396.1 80.0002 388C79.2293 387.058 78.4585 386.116 77.6642 385.145C51.1787 352.016 35.9151 311.924 31.0002 270C30.8687 268.904 30.7372 267.809 30.6017 266.68C25.1738 210.493 41.7086 150.447 77.6891 106.588C78.1218 106.064 78.5544 105.54 79.0002 105C79.4547 104.444 79.9093 103.888 80.3776 103.315C91.0427 90.3304 102.618 78.2131 116 68.0001C116.547 67.5767 117.094 67.1532 117.658 66.7169C127.294 59.2861 137.334 52.8521 148 47.0001C148.651 46.6432 149.301 46.2863 149.971 45.9186C211.371 12.7328 291.615 9.90182 354.09 42.0211Z" fill="#10B981"></path>
<path d="M346.699 133.412C350.259 136.483 353.637 139.715 357 143C357.776 143.714 358.553 144.428 359.352 145.164C385.047 169.406 398.816 205.914 400.223 240.711C401.236 280.326 386.861 315.809 360.958 345.328C355.688 350.866 351.396 353.151 343.625 353.437C337.945 353.269 333.408 352.776 329 349C324.161 343.216 321.502 337.921 321.672 330.262C322.911 321.726 328.755 315.918 334.442 309.91C351.747 290.227 358.447 262.662 357 237C354.866 212.537 344.065 191.274 327 174C326.431 173.358 325.861 172.716 325.274 172.055C309.494 154.656 283.849 146.053 260.997 144.625C234.894 143.648 209.248 151.99 189.75 169.562C189.065 170.224 188.379 170.885 187.672 171.566C186 173 186 173 184 173C183.744 173.581 183.487 174.163 183.223 174.762C181.889 177.204 180.38 178.824 178.438 180.812C161.529 199.651 153.881 225.755 154.719 250.781C156.107 275.723 166.455 297.879 183.055 316.277C183.676 316.969 184.298 317.662 184.938 318.375C185.483 318.96 186.029 319.545 186.59 320.148C190.888 325.792 190.714 332.21 190 339C188.399 344.358 185.777 348.001 181 351C174.302 354.607 168.645 355.087 161.438 352.937C138.75 340.15 123.864 309.118 117 285C114.577 275.551 112.327 265.774 112 256C111.975 255.335 111.949 254.67 111.922 253.985C110.499 212.265 124.577 175.44 153 145C153.761 144.174 154.522 143.347 155.305 142.496C204.428 91.038 292.727 88.549 346.699 133.412Z" fill="#10B981"></path>
<path d="M288.187 318.187C296.66 326.095 303.525 337.214 304.099 349.043C304.143 351.542 304.148 354.038 304.138 356.537C304.135 357.465 304.132 358.393 304.13 359.349C304.059 369.062 303.476 378.72 302.793 388.406C302.665 390.273 302.538 392.14 302.411 394.007C302.146 397.876 301.875 401.745 301.601 405.613C301.253 410.535 300.921 415.458 300.593 420.381C300.335 424.22 300.068 428.058 299.797 431.896C299.671 433.711 299.548 435.526 299.428 437.34C298.282 454.579 296.883 469.968 283.562 482.437C273.183 491.039 262.269 492.943 249 492C237.321 490.042 227.884 483.49 221 474C213.521 462.068 213.426 448.609 212.492 434.949C212.361 433.086 212.229 431.222 212.097 429.358C211.822 425.458 211.552 421.557 211.285 417.656C210.947 412.718 210.597 407.782 210.243 402.846C209.968 398.994 209.701 395.142 209.435 391.291C209.309 389.474 209.18 387.658 209.05 385.841C208.354 376.114 207.878 366.417 207.824 356.663C207.816 355.8 207.808 354.938 207.799 354.049C207.822 341.226 212.405 330.305 221.031 320.75C239.512 303.072 268.341 301.967 288.187 318.187Z" fill="#10B981"></path>
<path d="M291.313 207.187C302.228 217.664 307.204 230.65 308.25 245.562C307.991 260.416 302.16 273.371 292 284C281.745 293.265 268.866 298.325 255 298C239.952 296.806 226.849 291.821 216.614 280.461C207.728 269.623 202.77 256.107 204 242C206.225 226.556 212.083 213.654 224.637 203.965C245.669 189.833 271.733 190.629 291.313 207.187Z" fill="#10B981"></path>
</svg><style>@media (prefers-color-scheme: light) { :root { filter: none; } }
@media (prefers-color-scheme: dark) { :root { filter: none; } }
</style></svg>